<?xml version="1.0" encoding="UTF-8"?><svg xmlns="http://www.w3.org/2000/svg" xmlns:xlink="http://www.w3.org/1999/xlink" contentScriptType="text/ecmascript" width="375pt" zoomAndPan="magnify" contentStyleType="text/css" viewBox="0 0 375 374.999991" height="374.999991pt" preserveAspectRatio="xMidYMid meet" version="1.2"><defs><clipPath xml:id="clip1" id="clip1"><path d="M 54.394531 65 L 313.144531 65 L 313.144531 301 L 54.394531 301 Z M 54.394531 65 "/></clipPath></defs><g xml:id="surface1" id="surface1"><rect x="0" width="375" y="0" height="374.999991" style="fill:rgb(100%,100%,100%);fill-opacity:1;stroke:none;"/><rect x="0" width="375" y="0" height="374.999991" style="fill:rgb(100%,100%,100%);fill-opacity:1;stroke:none;"/><rect x="0" width="375" y="0" height="374.999991" style="fill:rgb(100%,100%,100%);fill-opacity:1;stroke:none;"/><path style=" stroke:none;fill-rule:nonzero;fill:rgb(85.879517%,84.309387%,95.689392%);fill-opacity:1;" d="M 304.332031 92.992188 C 302.257812 88.746094 299.015625 85.355469 295.152344 82.699219 C 290.503906 79.5 285.175781 78.464844 279.667969 77.957031 C 271.945312 77.242188 263.925781 77.953125 256.175781 78.050781 C 248.128906 78.148438 240.082031 78.25 232.03125 78.351562 C 199.839844 78.757812 167.648438 79.164062 135.453125 79.566406 C 117.34375 79.792969 99.238281 80.023438 81.128906 80.25 C 73.203125 80.347656 65.597656 87.152344 65.96875 95.410156 C 66.09375 98.199219 66.917969 100.875 68.289062 103.179688 C 68.15625 103.300781 68.019531 103.417969 67.886719 103.542969 C 61.285156 109.84375 62.367188 118.9375 62.449219 127.222656 C 62.507812 133.414062 62.601562 139.605469 62.730469 145.792969 C 62.984375 158.007812 63.375 170.21875 63.894531 182.425781 C 65.078125 210.179688 66.957031 237.902344 69.507812 265.5625 C 69.867188 269.484375 70.90625 273.492188 73.945312 276.285156 C 76.722656 278.832031 80.75 281.15625 84.667969 280.726562 C 123.769531 276.410156 162.875 272.097656 201.980469 267.78125 C 202.632812 268.070312 203.300781 268.324219 203.984375 268.539062 C 208.332031 269.898438 212.839844 269.375 217.296875 269.191406 C 224.660156 268.878906 232.023438 268.570312 239.382812 268.261719 C 247.082031 267.941406 254.777344 267.617188 262.476562 267.292969 C 270.59375 266.953125 279.03125 267.21875 287.054688 265.847656 C 294.019531 264.660156 299.730469 259.621094 301.894531 252.914062 C 303.367188 248.355469 302.921875 243.609375 302.78125 238.910156 C 302.558594 231.511719 302.335938 224.109375 302.113281 216.707031 C 301.65625 201.566406 301.199219 186.421875 300.746094 171.28125 C 300.324219 157.382812 299.90625 143.480469 299.488281 129.582031 C 300.378906 129.140625 301.253906 128.601562 302.117188 127.933594 C 306.019531 124.917969 307.804688 120.921875 308.089844 116.027344 C 308.550781 108.128906 307.847656 100.1875 304.332031 92.992188 Z M 304.332031 92.992188 "/><path style=" stroke:none;fill-rule:nonzero;fill:rgb(70.588684%,85.879517%,86.268616%);fill-opacity:1;" d="M 298.0625 239.355469 C 282.355469 238.515625 267.105469 236.378906 251.441406 237.78125 C 246.757812 238.203125 241.980469 238.566406 237.351562 239.394531 C 230.429688 240.636719 225.601562 246.023438 223.539062 252.484375 C 221.003906 260.421875 220.300781 269.28125 220.078125 277.570312 C 219.84375 286.351562 220.511719 295.125 221.191406 303.878906 C 221.457031 307.324219 222.464844 310.9375 225.125 313.378906 C 227.917969 315.941406 230.886719 316.878906 234.628906 317.3125 C 254.972656 319.671875 275.203125 313.21875 295.539062 315.890625 C 298.566406 316.289062 303.046875 314.128906 305.039062 311.957031 C 307.582031 309.183594 308.601562 306.1875 308.976562 302.453125 C 310.335938 288.824219 309.238281 274.882812 306.050781 261.550781 C 304.871094 254.394531 305.589844 239.761719 298.0625 239.355469 Z M 298.0625 239.355469 "/><g clip-rule="nonzero" clip-path="url(#clip1)"><path style=" stroke:none;fill-rule:nonzero;fill:rgb(3.529358%,9.01947%,46.269226%);fill-opacity:1;" d="M 297.921875 70.570312 C 294.132812 68.753906 289.875 68.03125 285.648438 68.332031 C 262.59375 65.089844 238.785156 66.40625 215.808594 66.589844 C 172.273438 67.164062 122.0625 64.625 78.558594 65.507812 C 67.191406 67.078125 57.566406 76.265625 55.230469 87.46875 C 53.847656 94.285156 54.929688 104.226562 54.394531 111.207031 C 54.367188 114.132812 55.621094 116.226562 57.425781 117.492188 C 56.449219 133.738281 55.917969 150.046875 55.257812 166.300781 C 54.511719 187.929688 54.359375 210.152344 55.914062 231.773438 C 57.621094 246.746094 57.074219 262.46875 61.59375 276.859375 C 63.628906 281.675781 65.183594 287.4375 69.152344 291.355469 C 80.925781 303.378906 98.441406 300.726562 113.667969 300.394531 C 134.210938 299.875 155.65625 299.304688 176.125 300.300781 C 182.011719 300.632812 182.085938 291.375 176.261719 291.492188 C 151.875 290.230469 122.300781 290.8125 97.839844 290.707031 C 90.109375 291.28125 81.429688 288.914062 76.414062 283.183594 C 74.257812 279.363281 72.972656 274.472656 71.386719 270.203125 C 67.867188 220.644531 73.222656 170.535156 67.914062 121.042969 C 67.851562 120.515625 67.773438 119.878906 67.6875 119.1875 C 72.070312 119.355469 77.359375 119.554688 77.511719 119.566406 C 152.164062 121.546875 228.328125 126.335938 302.832031 119.28125 C 302.128906 137.070312 301.746094 156.375 302.277344 172.902344 C 302.308594 177.417969 309.226562 177.371094 309.304688 172.921875 C 309.304688 149.464844 311.148438 121.949219 312.800781 98.578125 C 314.578125 87.328125 309.445312 74.089844 297.921875 70.570312 Z M 227.277344 107.566406 C 208.054688 108.3125 188.425781 110.015625 169.398438 110.660156 C 136.484375 111.394531 102.90625 111.292969 70.003906 110.453125 C 69.96875 106.253906 69.832031 97.441406 69.820312 93.992188 C 69.433594 88.339844 72.882812 82.703125 78.195312 80.660156 C 81.152344 79.21875 86.5 79.75 89.734375 79.589844 C 120.175781 79.199219 162.464844 78.960938 192.984375 78.667969 C 205.589844 78.726562 218.226562 78.085938 230.855469 77.558594 C 222.1875 86.449219 222.191406 98.59375 227.277344 107.566406 Z M 262.25 95.066406 C 262.261719 95.191406 262.285156 95.308594 262.300781 95.433594 C 259.011719 105.4375 242.03125 107.648438 237.605469 96.851562 C 234.03125 89.601562 239.984375 80.875 247.546875 79.640625 C 253.636719 78.492188 261.042969 82.777344 262.609375 88.976562 C 262.292969 90.882812 262.160156 92.914062 262.25 95.066406 Z M 266.664062 78.824219 C 266.121094 78.1875 265.542969 77.582031 264.933594 77.003906 C 265.953125 77.03125 266.96875 77.066406 267.988281 77.105469 C 267.523438 77.652344 267.082031 78.226562 266.664062 78.824219 Z M 301.894531 90.203125 C 301.085938 102.980469 277.847656 105.554688 275.261719 92.5625 C 273.742188 86.425781 278.554688 80.414062 284.300781 78.308594 C 287.734375 78.699219 291.160156 79.179688 294.578125 79.777344 C 295.984375 80.175781 297.179688 80.742188 298.199219 81.4375 C 300.539062 83.730469 302.03125 86.828125 301.894531 90.203125 Z M 303.253906 109.476562 C 303.164062 109.460938 303.074219 109.449219 302.980469 109.4375 C 303.078125 109.34375 303.175781 109.25 303.269531 109.15625 C 303.265625 109.261719 303.261719 109.367188 303.253906 109.476562 Z M 303.253906 109.476562 "/></g><path style=" stroke:none;fill-rule:nonzero;fill:rgb(3.529358%,9.01947%,46.269226%);fill-opacity:1;" d="M 311.765625 266.632812 C 311.609375 259.730469 310.617188 252.984375 308.171875 246.5 C 309.039062 244.480469 308.785156 242.019531 306.460938 240.066406 C 302.066406 236.386719 296.304688 234.425781 290.585938 234.761719 C 290.15625 234.851562 289.71875 234.933594 289.273438 235.011719 C 290.027344 232.050781 290.65625 229.0625 291.023438 225.824219 C 295.515625 197.472656 258.679688 184.90625 242.972656 207.421875 C 239.257812 213.292969 238.742188 220.441406 238.574219 227.144531 C 238.910156 229.214844 238.417969 232.023438 238.226562 234.679688 C 225.570312 236.335938 215.726562 242.378906 213.882812 259.945312 C 212.234375 275.429688 215.171875 291.636719 212.589844 306.730469 C 211.960938 315.054688 222.140625 317.375 226.394531 312.464844 C 242.484375 315.28125 259.007812 315.644531 275.238281 313.949219 C 282.175781 313.253906 290.070312 312.082031 297.019531 311.34375 C 299.734375 311.050781 302.449219 310.847656 305.171875 310.632812 C 308.335938 310.730469 312.570312 310.097656 311.945312 305.878906 C 309.867188 292.921875 312.214844 279.695312 311.765625 266.632812 Z M 258.75 208.726562 L 258.253906 208.875 C 263.625 207.808594 268.453125 209.6875 272.152344 213.3125 C 277.929688 219.15625 276.570312 227.894531 277.957031 235.71875 C 268.21875 235.585938 257.3125 234.121094 247.277344 234.140625 C 247.875 224.464844 247.121094 211.3125 258.75 208.726562 Z M 300.34375 298.898438 C 276.441406 298.648438 252.195312 298.683594 228.414062 301.46875 C 228.402344 287.125 225.152344 273.425781 226.105469 259.144531 C 227.875 233.457031 273.589844 249.058594 291.484375 244.726562 C 294.144531 244.917969 296.757812 246.109375 298.453125 248.171875 C 298.886719 248.675781 299.34375 249.070312 299.8125 249.382812 C 305.535156 265.167969 300.289062 282.371094 300.34375 298.898438 Z M 300.34375 298.898438 "/></g></svg>